# xmcd
#
# Track frame offsets: 
#        150
#        14698
#        29738
#        42700
#        55978
#        68828
#        79768
#        93633
#        104793
#        121053
#        137198
#        154515
#        165845
#        181190
#        196323
#        209375
#
# Disc length: 2942 seconds
#
# Revision: 0
# Processed by: cddbd v1.5.2PL0 Copyright (c) Steve Scherf et al.
# Submitted via: ExactAudioCopyFreeDBPlugin 1.0
#
DISCID=e30b7c10
DTITLE=Various Artist - てるてる家族の昭和歌謡アルバム
DYEAR=2004
DGENRE=JPop
TTITLE0=リンゴの唄 (並木路子・霧島昇)
TTITLE1=港が見える丘 (平野愛子)
TTITLE2=銀座カンカン娘 (高峰秀子)
TTITLE3=夜来香 (山口淑子)
TTITLE4=こんなベッピン見たことない (神楽坂はん子)
TTITLE5=ケ・セラ・セラ (ペギー葉山)
TTITLE6=ヤンミー・ヤンミー (江利チエミ)
TTITLE7=ルイジアナ・ママ (飯田久彦)
TTITLE8=君恋し (フランク永井)
TTITLE9=おひまなら来てね (五月みどり)
TTITLE10=いつでも夢を (橋幸夫・吉永小百合)
TTITLE11=可愛いベイビー (中尾ミエ)
TTITLE12=恋をするなら (橋幸夫)
TTITLE13=君といつまでも (加山雄三)
TTITLE14=空に星があるように (荒木一郎)
TTITLE15=恋のフーガ (ザ・ピーナッツ)
EXTD=
EXTT0=
EXTT1=
EXTT2=
EXTT3=
EXTT4=
EXTT5=
EXTT6=
EXTT7=
EXTT8=
EXTT9=
EXTT10=
EXTT11=
EXTT12=
EXTT13=
EXTT14=
EXTT15=
PLAYORDER=
